<mxfile host="app.diagrams.net" modified="2022-03-27T04:02:19.994Z" agent="5.0 (Windows)" etag="wFdVGAeFnfkLEHheN_ZH" version="17.2.3" type="github">
  <diagram id="0ugX_O2esdyqWqVec9Lx" name="Page-1">
    <mxGraphModel dx="1147" dy="678" grid="1" gridSize="10" guides="1" tooltips="1" connect="1" arrows="1" fold="1" page="1" pageScale="1" pageWidth="850" pageHeight="1100" math="0" shadow="0">
      <root>
        <mxCell id="0" />
        <mxCell id="1" parent="0" />
        <mxCell id="X4gTIYLBRH1vvdI9TSQq-1" value="" style="rounded=1;whiteSpace=wrap;html=1;strokeWidth=1;" vertex="1" parent="1">
          <mxGeometry x="160" y="125" width="510" height="320" as="geometry" />
        </mxCell>
        <mxCell id="X4gTIYLBRH1vvdI9TSQq-2" value="&lt;b&gt;X&lt;/b&gt;" style="ellipse;whiteSpace=wrap;html=1;aspect=fixed;strokeWidth=1;fillColor=#f5f5f5;gradientColor=#b3b3b3;strokeColor=#666666;" vertex="1" parent="1">
          <mxGeometry x="230" y="170" width="30" height="30" as="geometry" />
        </mxCell>
        <mxCell id="X4gTIYLBRH1vvdI9TSQq-32" value="" style="edgeStyle=orthogonalEdgeStyle;rounded=0;orthogonalLoop=1;jettySize=auto;html=1;fontSize=17;strokeWidth=2;" edge="1" parent="1" source="X4gTIYLBRH1vvdI9TSQq-3">
          <mxGeometry relative="1" as="geometry">
            <mxPoint x="760" y="185" as="targetPoint" />
            <Array as="points">
              <mxPoint x="750" y="185" />
            </Array>
          </mxGeometry>
        </mxCell>
        <mxCell id="X4gTIYLBRH1vvdI9TSQq-3" value="&lt;font style=&quot;font-size: 17px&quot;&gt;+&lt;/font&gt;" style="ellipse;whiteSpace=wrap;html=1;aspect=fixed;strokeWidth=1;fillColor=#f5f5f5;strokeColor=#666666;gradientColor=#b3b3b3;" vertex="1" parent="1">
          <mxGeometry x="360" y="170" width="30" height="30" as="geometry" />
        </mxCell>
        <mxCell id="X4gTIYLBRH1vvdI9TSQq-25" value="" style="edgeStyle=orthogonalEdgeStyle;rounded=0;orthogonalLoop=1;jettySize=auto;html=1;fontSize=17;strokeWidth=2;" edge="1" parent="1" source="X4gTIYLBRH1vvdI9TSQq-4" target="X4gTIYLBRH1vvdI9TSQq-3">
          <mxGeometry relative="1" as="geometry" />
        </mxCell>
        <mxCell id="X4gTIYLBRH1vvdI9TSQq-4" value="&lt;b&gt;X&lt;/b&gt;" style="ellipse;whiteSpace=wrap;html=1;aspect=fixed;strokeWidth=1;fillColor=#f5f5f5;gradientColor=#b3b3b3;strokeColor=#666666;" vertex="1" parent="1">
          <mxGeometry x="360" y="270" width="30" height="30" as="geometry" />
        </mxCell>
        <mxCell id="X4gTIYLBRH1vvdI9TSQq-27" value="" style="edgeStyle=orthogonalEdgeStyle;rounded=0;orthogonalLoop=1;jettySize=auto;html=1;fontSize=17;strokeWidth=2;" edge="1" parent="1" source="X4gTIYLBRH1vvdI9TSQq-5" target="X4gTIYLBRH1vvdI9TSQq-2">
          <mxGeometry relative="1" as="geometry">
            <mxPoint x="245" y="265" as="targetPoint" />
          </mxGeometry>
        </mxCell>
        <mxCell id="X4gTIYLBRH1vvdI9TSQq-5" value="σ" style="rounded=0;whiteSpace=wrap;html=1;fontSize=17;strokeWidth=1;fillColor=#f5f5f5;gradientColor=#b3b3b3;strokeColor=#666666;" vertex="1" parent="1">
          <mxGeometry x="230" y="355" width="30" height="20" as="geometry" />
        </mxCell>
        <mxCell id="X4gTIYLBRH1vvdI9TSQq-39" value="" style="edgeStyle=orthogonalEdgeStyle;rounded=0;orthogonalLoop=1;jettySize=auto;html=1;fontSize=17;entryX=0;entryY=0.5;entryDx=0;entryDy=0;strokeWidth=2;" edge="1" parent="1" source="X4gTIYLBRH1vvdI9TSQq-9" target="X4gTIYLBRH1vvdI9TSQq-4">
          <mxGeometry relative="1" as="geometry">
            <mxPoint x="295" y="280" as="targetPoint" />
            <Array as="points">
              <mxPoint x="295" y="285" />
            </Array>
          </mxGeometry>
        </mxCell>
        <mxCell id="X4gTIYLBRH1vvdI9TSQq-9" value="σ" style="rounded=0;whiteSpace=wrap;html=1;fontSize=17;strokeWidth=1;fillColor=#f5f5f5;gradientColor=#b3b3b3;strokeColor=#666666;" vertex="1" parent="1">
          <mxGeometry x="280" y="355" width="30" height="20" as="geometry" />
        </mxCell>
        <mxCell id="X4gTIYLBRH1vvdI9TSQq-18" style="edgeStyle=orthogonalEdgeStyle;rounded=0;orthogonalLoop=1;jettySize=auto;html=1;exitX=0.5;exitY=0;exitDx=0;exitDy=0;entryX=0;entryY=0.5;entryDx=0;entryDy=0;fontSize=17;strokeWidth=2;" edge="1" parent="1" source="X4gTIYLBRH1vvdI9TSQq-10" target="X4gTIYLBRH1vvdI9TSQq-12">
          <mxGeometry relative="1" as="geometry" />
        </mxCell>
        <mxCell id="X4gTIYLBRH1vvdI9TSQq-10" value="σ" style="rounded=0;whiteSpace=wrap;html=1;fontSize=17;strokeWidth=1;fillColor=#f5f5f5;gradientColor=#b3b3b3;strokeColor=#666666;" vertex="1" parent="1">
          <mxGeometry x="450" y="355" width="30" height="20" as="geometry" />
        </mxCell>
        <mxCell id="X4gTIYLBRH1vvdI9TSQq-24" value="" style="edgeStyle=orthogonalEdgeStyle;rounded=0;orthogonalLoop=1;jettySize=auto;html=1;fontSize=17;strokeWidth=2;" edge="1" parent="1" source="X4gTIYLBRH1vvdI9TSQq-11" target="X4gTIYLBRH1vvdI9TSQq-4">
          <mxGeometry relative="1" as="geometry" />
        </mxCell>
        <mxCell id="X4gTIYLBRH1vvdI9TSQq-11" value="tanh" style="rounded=0;whiteSpace=wrap;html=1;fontSize=17;strokeWidth=1;fillColor=#f5f5f5;gradientColor=#b3b3b3;strokeColor=#666666;" vertex="1" parent="1">
          <mxGeometry x="350" y="355" width="50" height="20" as="geometry" />
        </mxCell>
        <mxCell id="X4gTIYLBRH1vvdI9TSQq-36" value="" style="endArrow=classic;html=1;fontFamily=Helvetica;fontSize=17;fontColor=default;align=center;strokeColor=default;edgeStyle=orthogonalEdgeStyle;strokeWidth=2;" edge="1" parent="1" source="X4gTIYLBRH1vvdI9TSQq-12">
          <mxGeometry relative="1" as="geometry">
            <mxPoint x="750" y="400" as="targetPoint" />
            <Array as="points">
              <mxPoint x="525" y="400" />
            </Array>
          </mxGeometry>
        </mxCell>
        <mxCell id="X4gTIYLBRH1vvdI9TSQq-12" value="&lt;b&gt;X&lt;/b&gt;" style="ellipse;whiteSpace=wrap;html=1;aspect=fixed;strokeWidth=1;fillColor=#f5f5f5;gradientColor=#b3b3b3;strokeColor=#666666;" vertex="1" parent="1">
          <mxGeometry x="510" y="310" width="30" height="30" as="geometry" />
        </mxCell>
        <mxCell id="X4gTIYLBRH1vvdI9TSQq-46" style="edgeStyle=orthogonalEdgeStyle;rounded=0;orthogonalLoop=1;jettySize=auto;html=1;fontSize=17;strokeWidth=2;" edge="1" parent="1" source="X4gTIYLBRH1vvdI9TSQq-14">
          <mxGeometry relative="1" as="geometry">
            <mxPoint x="525" y="230" as="targetPoint" />
          </mxGeometry>
        </mxCell>
        <mxCell id="X4gTIYLBRH1vvdI9TSQq-14" value="tanh" style="rounded=0;whiteSpace=wrap;html=1;fontSize=17;strokeWidth=1;fillColor=#f5f5f5;gradientColor=#b3b3b3;strokeColor=#666666;" vertex="1" parent="1">
          <mxGeometry x="500" y="230" width="50" height="20" as="geometry" />
        </mxCell>
        <mxCell id="X4gTIYLBRH1vvdI9TSQq-37" value="" style="endArrow=classic;html=1;rounded=0;fontSize=17;strokeWidth=2;" edge="1" parent="1">
          <mxGeometry width="50" height="50" relative="1" as="geometry">
            <mxPoint x="600" y="400" as="sourcePoint" />
            <mxPoint x="600" y="80" as="targetPoint" />
          </mxGeometry>
        </mxCell>
        <mxCell id="X4gTIYLBRH1vvdI9TSQq-40" value="" style="endArrow=none;html=1;rounded=0;fontSize=17;entryX=0.5;entryY=1;entryDx=0;entryDy=0;strokeWidth=2;" edge="1" parent="1" target="X4gTIYLBRH1vvdI9TSQq-10">
          <mxGeometry width="50" height="50" relative="1" as="geometry">
            <mxPoint x="90" y="400" as="sourcePoint" />
            <mxPoint x="450" y="320" as="targetPoint" />
            <Array as="points">
              <mxPoint x="390" y="400" />
              <mxPoint x="465" y="400" />
            </Array>
          </mxGeometry>
        </mxCell>
        <mxCell id="X4gTIYLBRH1vvdI9TSQq-41" value="" style="endArrow=none;html=1;rounded=0;fontSize=17;entryX=0.5;entryY=1;entryDx=0;entryDy=0;strokeWidth=2;startArrow=none;" edge="1" parent="1" source="X4gTIYLBRH1vvdI9TSQq-57" target="X4gTIYLBRH1vvdI9TSQq-5">
          <mxGeometry width="50" height="50" relative="1" as="geometry">
            <mxPoint x="245" y="490" as="sourcePoint" />
            <mxPoint x="240" y="400" as="targetPoint" />
          </mxGeometry>
        </mxCell>
        <mxCell id="X4gTIYLBRH1vvdI9TSQq-42" value="" style="endArrow=none;html=1;rounded=0;fontSize=17;strokeWidth=2;exitX=1;exitY=0.5;exitDx=0;exitDy=0;entryX=0;entryY=0.5;entryDx=0;entryDy=0;" edge="1" parent="1" source="X4gTIYLBRH1vvdI9TSQq-2" target="X4gTIYLBRH1vvdI9TSQq-3">
          <mxGeometry width="50" height="50" relative="1" as="geometry">
            <mxPoint x="290" y="220" as="sourcePoint" />
            <mxPoint x="340" y="170" as="targetPoint" />
          </mxGeometry>
        </mxCell>
        <mxCell id="X4gTIYLBRH1vvdI9TSQq-43" value="" style="endArrow=none;html=1;rounded=0;fontSize=17;strokeWidth=2;entryX=0;entryY=0.5;entryDx=0;entryDy=0;" edge="1" parent="1" target="X4gTIYLBRH1vvdI9TSQq-2">
          <mxGeometry width="50" height="50" relative="1" as="geometry">
            <mxPoint x="90" y="185" as="sourcePoint" />
            <mxPoint x="180" y="170" as="targetPoint" />
          </mxGeometry>
        </mxCell>
        <mxCell id="X4gTIYLBRH1vvdI9TSQq-44" value="" style="endArrow=none;html=1;rounded=0;fontSize=17;strokeWidth=2;exitX=0.5;exitY=0;exitDx=0;exitDy=0;entryX=0.5;entryY=1;entryDx=0;entryDy=0;" edge="1" parent="1" source="X4gTIYLBRH1vvdI9TSQq-12" target="X4gTIYLBRH1vvdI9TSQq-14">
          <mxGeometry width="50" height="50" relative="1" as="geometry">
            <mxPoint x="500" y="300" as="sourcePoint" />
            <mxPoint x="550" y="250" as="targetPoint" />
          </mxGeometry>
        </mxCell>
        <mxCell id="X4gTIYLBRH1vvdI9TSQq-45" value="" style="endArrow=none;html=1;rounded=0;fontSize=17;strokeWidth=2;exitX=0.5;exitY=0;exitDx=0;exitDy=0;" edge="1" parent="1" source="X4gTIYLBRH1vvdI9TSQq-14">
          <mxGeometry width="50" height="50" relative="1" as="geometry">
            <mxPoint x="500" y="240" as="sourcePoint" />
            <mxPoint x="525" y="190" as="targetPoint" />
          </mxGeometry>
        </mxCell>
        <mxCell id="X4gTIYLBRH1vvdI9TSQq-47" value="" style="endArrow=none;html=1;rounded=0;fontSize=17;strokeWidth=2;entryX=0.5;entryY=1;entryDx=0;entryDy=0;" edge="1" parent="1" target="X4gTIYLBRH1vvdI9TSQq-9">
          <mxGeometry width="50" height="50" relative="1" as="geometry">
            <mxPoint x="295" y="400" as="sourcePoint" />
            <mxPoint x="330" y="370" as="targetPoint" />
          </mxGeometry>
        </mxCell>
        <mxCell id="X4gTIYLBRH1vvdI9TSQq-48" value="" style="endArrow=none;html=1;rounded=0;fontSize=17;strokeWidth=2;entryX=0.5;entryY=1;entryDx=0;entryDy=0;" edge="1" parent="1" target="X4gTIYLBRH1vvdI9TSQq-11">
          <mxGeometry width="50" height="50" relative="1" as="geometry">
            <mxPoint x="375" y="400" as="sourcePoint" />
            <mxPoint x="410" y="370" as="targetPoint" />
          </mxGeometry>
        </mxCell>
        <mxCell id="X4gTIYLBRH1vvdI9TSQq-49" value="h&lt;sub&gt;t&lt;/sub&gt;" style="text;html=1;strokeColor=none;fillColor=none;align=center;verticalAlign=middle;whiteSpace=wrap;rounded=0;fontSize=17;" vertex="1" parent="1">
          <mxGeometry x="540" y="70" width="60" height="30" as="geometry" />
        </mxCell>
        <mxCell id="X4gTIYLBRH1vvdI9TSQq-50" value="C&lt;sub&gt;t&lt;/sub&gt;" style="text;html=1;align=center;verticalAlign=middle;resizable=0;points=[];autosize=1;strokeColor=none;fillColor=none;fontSize=17;" vertex="1" parent="1">
          <mxGeometry x="745" y="185" width="30" height="30" as="geometry" />
        </mxCell>
        <mxCell id="X4gTIYLBRH1vvdI9TSQq-51" value="h&lt;sub&gt;t&lt;/sub&gt;" style="text;html=1;align=center;verticalAlign=middle;resizable=0;points=[];autosize=1;strokeColor=none;fillColor=none;fontSize=17;" vertex="1" parent="1">
          <mxGeometry x="745" y="400" width="30" height="30" as="geometry" />
        </mxCell>
        <mxCell id="X4gTIYLBRH1vvdI9TSQq-52" value="O&lt;sub&gt;t&lt;/sub&gt;" style="text;html=1;align=center;verticalAlign=middle;resizable=0;points=[];autosize=1;strokeColor=none;fillColor=none;fontSize=17;" vertex="1" parent="1">
          <mxGeometry x="450" y="295" width="30" height="30" as="geometry" />
        </mxCell>
        <mxCell id="X4gTIYLBRH1vvdI9TSQq-53" value="i&lt;sub&gt;t&lt;/sub&gt;" style="text;html=1;align=center;verticalAlign=middle;resizable=0;points=[];autosize=1;strokeColor=none;fillColor=none;fontSize=17;" vertex="1" parent="1">
          <mxGeometry x="280" y="260" width="20" height="30" as="geometry" />
        </mxCell>
        <mxCell id="X4gTIYLBRH1vvdI9TSQq-54" value="f&lt;sub&gt;t&lt;/sub&gt;" style="text;html=1;align=center;verticalAlign=middle;resizable=0;points=[];autosize=1;strokeColor=none;fillColor=none;fontSize=17;" vertex="1" parent="1">
          <mxGeometry x="220" y="265" width="20" height="30" as="geometry" />
        </mxCell>
        <mxCell id="X4gTIYLBRH1vvdI9TSQq-55" value="C&lt;sub&gt;t-1&lt;/sub&gt;" style="text;html=1;align=center;verticalAlign=middle;resizable=0;points=[];autosize=1;strokeColor=none;fillColor=none;fontSize=17;" vertex="1" parent="1">
          <mxGeometry x="50" y="165" width="40" height="30" as="geometry" />
        </mxCell>
        <mxCell id="X4gTIYLBRH1vvdI9TSQq-56" value="h&lt;sub&gt;t-1&lt;/sub&gt;" style="text;html=1;align=center;verticalAlign=middle;resizable=0;points=[];autosize=1;strokeColor=none;fillColor=none;fontSize=17;" vertex="1" parent="1">
          <mxGeometry x="50" y="375" width="40" height="30" as="geometry" />
        </mxCell>
        <mxCell id="X4gTIYLBRH1vvdI9TSQq-57" value="X&lt;sub&gt;t&lt;/sub&gt;" style="text;html=1;align=center;verticalAlign=middle;resizable=0;points=[];autosize=1;strokeColor=none;fillColor=none;fontSize=17;" vertex="1" parent="1">
          <mxGeometry x="230" y="495" width="30" height="30" as="geometry" />
        </mxCell>
      </root>
    </mxGraphModel>
  </diagram>
</mxfile>
